<svg width="104" height="104" viewBox="0 0 104 104" fill="none" xmlns="http://www.w3.org/2000/svg">
<path fill-rule="evenodd" clip-rule="evenodd" d="M35.3333 17.3333H21C17.2288 17.3333 15.3431 17.3333 14.1716 18.5048C13 19.6764 13 21.562 13 25.3333V42.8333C13 43.069 13 43.1868 13.0732 43.26C13.1464 43.3333 13.2643 43.3333 13.5 43.3333H90.5C90.7357 43.3333 90.8536 43.3333 90.9268 43.26C91 43.1868 91 43.069 91 42.8333V25.3333C91 21.562 91 19.6764 89.8284 18.5048C88.6569 17.3333 86.7712 17.3333 83 17.3333H68.6667L68.6667 28.1666C68.6667 28.995 67.9951 29.6666 67.1667 29.6666C66.3383 29.6666 65.6667 28.995 65.6667 28.1666L65.6667 17.3333H38.3333L38.3333 28.1666C38.3334 28.995 37.6618 29.6666 36.8334 29.6666C36.0049 29.6666 35.3334 28.995 35.3333 28.1666L35.3333 17.3333Z" fill="white"/>
<path d="M13 48.5C13 48.2643 13 48.1464 13.0732 48.0732C13.1464 48 13.2643 48 13.5 48H90.5C90.7357 48 90.8536 48 90.9268 48.0732C91 48.1464 91 48.2643 91 48.5V88C91 91.7712 91 93.6569 89.8284 94.8284C88.6569 96 86.7712 96 83 96H21C17.2288 96 15.3431 96 14.1716 94.8284C13 93.6569 13 91.7712 13 88V48.5Z" fill="url(#paint0_linear_175_1562)"/>
<path d="M36.833 10.8333L36.833 28.1666" stroke="white" stroke-linecap="round"/>
<path d="M67.167 10.8333L67.167 28.1666" stroke="white" stroke-linecap="round"/>
<defs>
<linearGradient id="paint0_linear_175_1562" x1="13" y1="48" x2="91" y2="96" gradientUnits="userSpaceOnUse">
<stop stop-color="#0D9EFB"/>
<stop offset="1" stop-color="#9309FF"/>
</linearGradient>
</defs>
</svg>
