<svg width="238" height="206" viewBox="0 0 238 206" fill="none" xmlns="http://www.w3.org/2000/svg">
<path d="M119.952 206L238 18.6624H1.90469L119.952 206Z" fill="url(#paint0_linear_158_1482)"/>
<path d="M148.341 189.55L201.741 0L0 58.9846L148.341 189.55Z" fill="url(#paint1_linear_158_1482)"/>
<g opacity="0.01">
<path opacity="0.01" d="M119.953 196.294C115.173 196.294 110.717 193.832 108.202 189.8L9.7747 32.4719C7.11548 28.2256 7.00767 22.9088 9.45128 18.5554C11.859 14.202 16.4946 11.4901 21.5256 11.4901H218.415C223.446 11.4901 228.046 14.202 230.49 18.5554C232.933 22.9088 232.79 28.2256 230.166 32.4719L131.703 189.836C129.188 193.868 124.732 196.294 119.953 196.294ZM46.3928 38.9663L119.988 156.543L193.584 38.9663H46.3928Z" fill="#AB80FF"/>
</g>
<g opacity="0.01">
<path opacity="0.01" d="M119.952 195.795C115.353 195.795 111.076 193.44 108.669 189.55L10.2058 32.1865C7.65436 28.1186 7.54656 22.9802 9.88236 18.8052C12.2182 14.6303 16.6741 12.0254 21.4895 12.0254H218.379C223.195 12.0254 227.651 14.6303 229.987 18.8052C232.322 22.9802 232.215 28.1186 229.663 32.1865L131.2 189.514C128.828 193.44 124.552 195.795 119.952 195.795ZM45.4224 38.4311L119.952 157.542L194.482 38.4311H45.4224Z" fill="#AB80FF"/>
</g>
<g opacity="0.01">
<path opacity="0.01" d="M119.953 195.259C115.532 195.259 111.436 193.011 109.1 189.265L10.673 31.9367C8.22942 28.0116 8.12162 23.1229 10.3496 19.0907C12.6135 15.0585 16.8898 12.5607 21.4896 12.5607H218.38C223.015 12.5607 227.291 15.0585 229.519 19.0907C231.783 23.1229 231.64 28.0472 229.196 31.9367L130.805 189.265C128.469 192.976 124.373 195.259 119.953 195.259ZM44.4523 37.8958L119.953 158.541L195.453 37.8958H44.4523Z" fill="#AB80FF"/>
</g>
<g opacity="0.01">
<path opacity="0.01" d="M119.953 194.724C115.712 194.724 111.795 192.547 109.567 188.979L11.1045 31.6512C8.76865 27.9044 8.66085 23.1942 10.817 19.3404C12.9731 15.4866 17.0697 13.0958 21.5257 13.0958H218.416C222.872 13.0958 226.932 15.4866 229.124 19.3404C231.281 23.1942 231.173 27.9044 228.837 31.6512L130.374 188.979C128.11 192.547 124.193 194.724 119.953 194.724ZM43.5182 37.3962L119.953 159.576L196.387 37.3962H43.5182Z" fill="#AB80FF"/>
</g>
<g opacity="0.012816">
<path opacity="0.012816" d="M119.953 194.189C115.892 194.189 112.155 192.119 109.999 188.694L11.5717 31.3657C9.34371 27.7974 9.23591 23.2656 11.2842 19.5902C13.3325 15.9148 17.2495 13.6311 21.5258 13.6311H218.416C222.656 13.6311 226.573 15.9148 228.657 19.5902C230.706 23.2656 230.598 27.7974 228.37 31.3657L129.907 188.694C127.751 192.119 124.013 194.189 119.953 194.189ZM42.548 36.861L119.953 160.575L197.358 36.861H42.548Z" fill="#AB80FF"/>
</g>
<g opacity="0.012893">
<path opacity="0.012893" d="M119.953 193.654C116.107 193.654 112.514 191.691 110.466 188.408L12.0386 31.0802C9.88246 27.6546 9.81059 23.3726 11.7511 19.84C13.7275 16.3073 17.4648 14.1306 21.5255 14.1306H218.415C222.476 14.1306 226.213 16.3073 228.19 19.84C230.166 23.3726 230.059 27.6546 227.902 31.0802L129.439 188.408C127.427 191.691 123.834 193.654 119.953 193.654ZM41.6134 36.3257L119.988 161.574L198.364 36.3257H41.6134Z" fill="#AB80FF"/>
</g>
<g opacity="0.017194">
<path opacity="0.017194" d="M119.953 193.154C116.287 193.154 112.873 191.263 110.933 188.158L12.47 30.7948C10.4217 27.5476 10.3139 23.444 12.2184 20.0898C14.0871 16.7355 17.6447 14.6659 21.5257 14.6659H218.416C222.261 14.6659 225.818 16.7355 227.723 20.0898C229.592 23.444 229.484 27.5476 227.471 30.7948L129.008 188.158C127.068 191.263 123.654 193.154 119.953 193.154ZM40.6433 35.7904L119.953 162.573L199.262 35.7904H40.6433Z" fill="#AB80FF"/>
</g>
<g opacity="0.0173">
<path opacity="0.0173" d="M119.953 192.619C116.467 192.619 113.197 190.835 111.364 187.873L12.9372 30.545C10.9967 27.4406 10.8889 23.5511 12.6857 20.3753C14.4824 17.1994 17.8603 15.2012 21.5258 15.2012H218.416C222.081 15.2012 225.459 17.1638 227.256 20.3753C229.053 23.5511 228.945 27.4406 227.004 30.545L128.541 187.873C126.709 190.835 123.438 192.619 119.953 192.619ZM39.6731 35.2552L119.953 163.537L200.232 35.2552H39.6731Z" fill="#AB80FF"/>
</g>
<g opacity="0.021631">
<path opacity="0.021631" d="M119.953 192.084C116.646 192.084 113.556 190.371 111.831 187.587L13.3682 30.2596C11.5355 27.3335 11.4277 23.6225 13.1167 20.6251C14.8056 17.6277 18.0039 15.7365 21.4896 15.7365H218.38C221.865 15.7365 225.064 17.592 226.752 20.6251C228.441 23.6582 228.334 27.3335 226.501 30.2596L128.038 187.587C126.349 190.371 123.259 192.084 119.953 192.084ZM38.7386 34.7557L119.988 164.572L201.202 34.7557H38.7386Z" fill="#AB80FF"/>
</g>
<g opacity="0.021769">
<path opacity="0.021769" d="M119.952 191.548C116.826 191.548 113.915 189.943 112.262 187.302L13.8353 29.974C12.1104 27.1907 12.0026 23.7294 13.6197 20.8748C15.2008 18.0201 18.2553 16.2716 21.5254 16.2716H218.415C221.685 16.2716 224.74 18.0558 226.321 20.8748C227.902 23.7294 227.83 27.1907 226.106 29.974L127.643 187.302C125.99 189.943 123.079 191.548 119.952 191.548ZM37.7682 34.2203L119.952 165.571L202.137 34.2203H37.7682Z" fill="#AB80FF"/>
</g>
<g opacity="0.026134">
<path opacity="0.026134" d="M119.953 191.013C117.006 191.013 114.275 189.514 112.73 187.017L14.2669 29.6886C12.6498 27.0837 12.542 23.8009 14.0513 21.1246C15.5606 18.4484 18.4354 16.7712 21.5258 16.7712H218.416C221.506 16.7712 224.345 18.4484 225.854 21.1246C227.364 23.8009 227.292 27.0837 225.639 29.6886L127.176 187.017C125.631 189.514 122.9 191.013 119.953 191.013ZM36.7984 33.6852L119.953 166.57L203.107 33.6852H36.7984Z" fill="#AB80FF"/>
</g>
<g opacity="0.026309">
<path opacity="0.026309" d="M119.952 190.514C117.185 190.514 114.634 189.086 113.161 186.767L14.7336 29.4032C13.1883 26.9767 13.1165 23.8723 14.5539 21.3744C15.9554 18.8766 18.6146 17.3065 21.5254 17.3065H218.415C221.326 17.3065 223.985 18.8766 225.387 21.3744C226.788 23.8723 226.716 26.9767 225.207 29.4032L126.744 186.731C125.271 189.086 122.719 190.514 119.952 190.514ZM35.8636 33.1499L119.952 167.569L204.041 33.1499H35.8636Z" fill="#AB80FF"/>
</g>
<g opacity="0.030714">
<path opacity="0.030714" d="M119.952 189.978C117.365 189.978 114.993 188.658 113.628 186.481L15.2008 29.1533C13.7634 26.8696 13.6916 24.0149 15.0212 21.6598C16.3148 19.3047 18.7944 17.8417 21.5255 17.8417H218.415C221.111 17.8417 223.626 19.3047 224.92 21.6598C226.249 24.0149 226.177 26.8696 224.74 29.1533L126.277 186.481C124.912 188.658 122.54 189.978 119.952 189.978ZM34.8934 32.6146L119.952 168.568L205.012 32.6146H34.8934Z" fill="#AB80FF"/>
</g>
<g opacity="0.030934">
<path opacity="0.030934" d="M119.952 189.443C117.545 189.443 115.353 188.23 114.095 186.196L15.6319 28.8679C14.3022 26.7625 14.2304 24.0863 15.4522 21.9096C16.674 19.7329 18.9738 18.377 21.4893 18.377H218.379C220.895 18.377 223.195 19.7329 224.416 21.9096C225.638 24.0863 225.566 26.7625 224.237 28.8679L125.774 186.196C124.588 188.23 122.36 189.443 119.952 189.443ZM33.9589 32.115L119.988 169.567L205.982 32.115H33.9589Z" fill="#AB80FF"/>
</g>
<g opacity="0.03539">
<path opacity="0.03539" d="M119.953 188.908C117.761 188.908 115.712 187.766 114.527 185.91L16.0995 28.5824C14.8777 26.6198 14.8058 24.1577 15.9558 22.1594C17.0698 20.1611 19.2259 18.9122 21.5258 18.9122H218.416C220.716 18.9122 222.872 20.1611 223.986 22.1594C225.1 24.1577 225.064 26.6198 223.842 28.5824L125.379 185.91C124.229 187.802 122.181 188.908 119.953 188.908ZM32.9891 31.5798L119.953 170.566L206.916 31.5798H32.9891Z" fill="#AB80FF"/>
</g>
<g opacity="0.035667">
<path opacity="0.035667" d="M119.953 188.373C117.94 188.373 116.036 187.338 114.993 185.625L16.5305 28.297C15.4165 26.5129 15.3447 24.2648 16.3868 22.4093C17.4289 20.5537 19.3694 19.4119 21.4896 19.4119H218.38C220.5 19.4119 222.476 20.5537 223.482 22.4093C224.525 24.2648 224.453 26.5129 223.339 28.297L124.876 185.625C123.87 187.338 122.001 188.373 119.953 188.373ZM32.0187 31.0446L119.953 171.566L207.886 31.0446H32.0187Z" fill="#AB80FF"/>
</g>
<g opacity="0.04019">
<path opacity="0.04019" d="M119.953 187.873C118.12 187.873 116.395 186.945 115.425 185.375L16.9977 28.0116C15.9915 26.3701 15.9196 24.3362 16.8539 22.6591C17.7882 20.982 19.585 19.9471 21.4896 19.9471H218.38C220.32 19.9471 222.081 20.982 223.015 22.6591C223.95 24.3362 223.914 26.3701 222.871 28.0116L124.409 185.34C123.51 186.91 121.785 187.873 119.953 187.873ZM31.0843 30.5094L119.988 172.565L208.857 30.5094H31.0843Z" fill="#AB80FF"/>
</g>
<g opacity="0.040549">
<path opacity="0.040549" d="M119.952 187.338C118.299 187.338 116.754 186.481 115.892 185.09L17.4288 27.7617C16.4945 26.2986 16.4586 24.4431 17.321 22.9444C18.1835 21.4457 19.7646 20.5179 21.4895 20.5179H218.379C220.104 20.5179 221.721 21.4457 222.548 22.9444C223.41 24.4431 223.339 26.2986 222.44 27.7617L123.977 185.09C123.151 186.481 121.605 187.338 119.952 187.338ZM30.114 29.974L119.952 173.564L209.791 29.974H30.114Z" fill="#AB80FF"/>
</g>
<g opacity="0.045177">
<path opacity="0.045177" d="M119.953 186.802C118.479 186.802 117.114 186.053 116.323 184.804L17.8961 27.4763C17.0696 26.156 17.0337 24.5502 17.7883 23.1943C18.5429 21.8383 19.9444 21.0176 21.4896 21.0176H218.38C219.925 21.0176 221.362 21.8383 222.081 23.1943C222.836 24.5502 222.8 26.1917 221.973 27.4763L123.51 184.804C122.791 186.053 121.426 186.802 119.953 186.802ZM29.1439 29.4745L119.953 174.599L210.761 29.4745H29.1439Z" fill="#AB80FF"/>
</g>
<g opacity="0.045679">
<path opacity="0.045679" d="M119.953 186.267C118.659 186.267 117.473 185.625 116.79 184.519L18.3633 27.1908C17.6446 26.049 17.6087 24.6216 18.2555 23.4441C18.9023 22.2665 20.1601 21.5529 21.5256 21.5529H218.416C219.781 21.5529 221.003 22.2665 221.686 23.4441C222.333 24.6216 222.297 26.049 221.578 27.1908L123.115 184.519C122.432 185.625 121.246 186.267 119.953 186.267ZM28.2096 28.9393L119.953 175.598L211.696 28.9393H28.2096Z" fill="#AB80FF"/>
</g>
<g opacity="0.05052">
<path opacity="0.05052" d="M119.952 185.732C118.838 185.732 117.832 185.161 117.257 184.233L18.7942 26.9053C18.1833 25.9419 18.1473 24.6929 18.7223 23.6938C19.2973 22.6947 20.3394 22.0524 21.5253 22.0524H218.415C219.565 22.0524 220.643 22.659 221.218 23.6938C221.793 24.6929 221.757 25.9419 221.146 26.9053L122.683 184.233C122.108 185.197 121.066 185.732 119.952 185.732ZM27.239 28.404L119.952 176.561L212.666 28.404H27.239Z" fill="#AB80FF"/>
</g>
<g opacity="0.051421">
<path opacity="0.051421" d="M119.952 185.232C119.018 185.232 118.191 184.768 117.688 183.983L19.2613 26.6199C18.7583 25.7991 18.7223 24.7643 19.1895 23.9436C19.6566 23.1229 20.555 22.5876 21.5253 22.5876H218.415C219.385 22.5876 220.284 23.1229 220.751 23.9436C221.218 24.7643 221.182 25.7991 220.679 26.6199L122.216 183.948C121.749 184.733 120.887 185.232 119.952 185.232ZM26.3047 27.8688L119.988 177.56L213.636 27.8688H26.3047Z" fill="#AB80FF"/>
</g>
<g opacity="0.058579">
<path opacity="0.058579" d="M119.953 184.697C119.234 184.697 118.551 184.305 118.156 183.698L19.6929 26.3344C19.2976 25.6921 19.2616 24.8714 19.6569 24.1934C20.0163 23.5154 20.735 23.1229 21.5256 23.1229H218.415C219.17 23.1229 219.889 23.5511 220.284 24.1934C220.643 24.8714 220.644 25.6921 220.248 26.3344L121.785 183.662C121.39 184.305 120.707 184.697 119.953 184.697ZM25.3347 27.3336L119.953 178.56L214.606 27.3336H25.3347Z" fill="#AB80FF"/>
</g>
<path d="M119.953 184.162C119.413 184.162 118.874 183.876 118.587 183.413L20.16 26.0847C19.8725 25.5851 19.8366 24.9785 20.1241 24.4789C20.4115 23.9794 20.9506 23.6582 21.5255 23.6582H218.415C218.99 23.6582 219.529 23.9794 219.817 24.4789C220.104 24.9785 220.068 25.5851 219.781 26.0847L121.318 183.413C121.031 183.876 120.527 184.162 119.953 184.162ZM24.3644 26.834L119.953 179.594L215.541 26.834H24.3644Z" fill="#AB80FF"/>
<path d="M119.953 183.52C119.629 183.52 119.306 183.341 119.126 183.056L20.6991 25.7278C20.5194 25.4423 20.5194 25.0498 20.6632 24.7643C20.8428 24.4789 21.1663 24.2648 21.4897 24.2648H218.38C218.739 24.2648 219.062 24.4432 219.206 24.7643C219.386 25.0498 219.35 25.4423 219.17 25.7278L120.707 183.056C120.599 183.377 120.276 183.52 119.953 183.52ZM23.2146 26.1917L119.953 180.772L216.691 26.1917H23.2146Z" fill="#AB80FF"/>
<path d="M119.953 182.913C119.845 182.913 119.737 182.842 119.665 182.77L21.2383 25.4067C21.1664 25.2996 21.1664 25.1926 21.2383 25.0855C21.3102 24.9785 21.418 24.9071 21.5258 24.9071H218.416C218.524 24.9071 218.631 24.9785 218.703 25.0855C218.775 25.1926 218.739 25.2996 218.703 25.4067L120.24 182.735C120.168 182.842 120.061 182.913 119.953 182.913ZM22.1007 25.5494L119.953 181.985L217.841 25.5494H22.1007Z" fill="#AB80FF"/>
<defs>
<linearGradient id="paint0_linear_158_1482" x1="119.962" y1="17.9579" x2="119.962" y2="193.555" gradientUnits="userSpaceOnUse">
<stop stop-color="#B068A5"/>
<stop offset="0.2471" stop-color="#9859B3"/>
<stop offset="0.7661" stop-color="#5B33D6"/>
<stop offset="1" stop-color="#3D20E7"/>
</linearGradient>
<linearGradient id="paint1_linear_158_1482" x1="0" y1="94.776" x2="201.759" y2="94.776" gradientUnits="userSpaceOnUse">
<stop stop-color="#B068A5"/>
<stop offset="0.2471" stop-color="#9859B3"/>
<stop offset="0.7661" stop-color="#5B33D6"/>
<stop offset="1" stop-color="#3D20E7"/>
</linearGradient>
</defs>
</svg>
