<svg width="118" height="102" viewBox="0 0 118 102" fill="none" xmlns="http://www.w3.org/2000/svg">
<path d="M59.4723 102L118 9.24057H0.944447L59.4723 102Z" fill="url(#paint0_linear_158_1481)"/>
<path d="M73.5473 93.8549L100.023 0L0 29.206L73.5473 93.8549Z" fill="url(#paint1_linear_158_1481)"/>
<g opacity="0.01">
<path opacity="0.01" d="M59.4725 97.1942C57.1029 97.1942 54.8936 95.9751 53.6465 93.9786L4.84651 16.0783C3.52808 13.9758 3.47463 11.3432 4.68616 9.18764C5.87988 7.03209 8.17824 5.68929 10.6726 5.68929H108.29C110.785 5.68929 113.065 7.03209 114.277 9.18764C115.488 11.3432 115.417 13.9758 114.116 16.0783L65.2986 93.9962C64.0514 95.9928 61.8421 97.1942 59.4725 97.1942ZM23.0017 19.294L59.4903 77.5116L95.9789 19.294H23.0017Z" fill="#AB80FF"/>
</g>
<g opacity="0.01">
<path opacity="0.01" d="M59.4723 96.9469C57.1918 96.9469 55.0716 95.7808 53.8779 93.8549L5.06013 15.937C3.79515 13.9228 3.7417 11.3785 4.89978 9.31132C6.05787 7.24411 8.26714 5.95432 10.6546 5.95432H108.272C110.66 5.95432 112.869 7.24411 114.027 9.31132C115.185 11.3785 115.132 13.9228 113.867 15.937L65.049 93.8372C63.8731 95.7808 61.7529 96.9469 59.4723 96.9469ZM22.5205 19.029L59.4723 78.0063L96.4242 19.029H22.5205Z" fill="#AB80FF"/>
</g>
<g opacity="0.01">
<path opacity="0.01" d="M59.4724 96.6818C57.281 96.6818 55.2499 95.5687 54.0918 93.7135L5.29185 15.8133C4.08031 13.8698 4.02686 11.4492 5.1315 9.45267C6.25395 7.45614 8.37414 6.21935 10.6547 6.21935H108.272C110.571 6.21935 112.691 7.45614 113.796 9.45267C114.918 11.4492 114.847 13.8875 113.635 15.8133L64.8531 93.7135C63.695 95.5511 61.6639 96.6818 59.4724 96.6818ZM22.0395 18.7639L59.4724 78.501L96.9053 18.7639H22.0395Z" fill="#AB80FF"/>
</g>
<g opacity="0.01">
<path opacity="0.01" d="M59.4727 96.4168C57.3703 96.4168 55.4283 95.339 54.3237 93.5722L5.50593 15.672C4.34784 13.8168 4.29439 11.4845 5.36339 9.57634C6.43239 7.66815 8.4635 6.48436 10.6728 6.48436H108.29C110.5 6.48436 112.513 7.66815 113.6 9.57634C114.669 11.4845 114.615 13.8168 113.457 15.672L64.6396 93.5722C63.5171 95.339 61.5751 96.4168 59.4727 96.4168ZM21.5766 18.5166L59.4727 79.0134L97.3688 18.5166H21.5766Z" fill="#AB80FF"/>
</g>
<g opacity="0.012816">
<path opacity="0.012816" d="M59.4728 96.1518C57.4595 96.1518 55.6066 95.127 54.5376 93.4308L5.73765 15.5306C4.63301 13.7638 4.57956 11.5199 5.59512 9.70002C6.61067 7.88017 8.55269 6.74939 10.6729 6.74939H108.291C110.393 6.74939 112.335 7.88017 113.368 9.70002C114.384 11.5199 114.33 13.7638 113.226 15.5306L64.408 93.4308C63.339 95.127 61.4861 96.1518 59.4728 96.1518ZM21.0956 18.2516L59.4728 79.5081L97.85 18.2516H21.0956Z" fill="#AB80FF"/>
</g>
<g opacity="0.012893">
<path opacity="0.012893" d="M59.4724 95.8868C57.5661 95.8868 55.7844 94.915 54.7688 93.2895L5.96889 15.3893C4.89989 13.6931 4.86426 11.5729 5.82636 9.82369C6.80628 8.07451 8.65922 6.99673 10.6725 6.99673H108.29C110.303 6.99673 112.156 8.07451 113.136 9.82369C114.116 11.5729 114.063 13.6931 112.994 15.3893L64.1761 93.2895C63.1783 94.915 61.3966 95.8868 59.4724 95.8868ZM20.632 17.9865L59.4903 80.0028L98.3485 17.9865H20.632Z" fill="#AB80FF"/>
</g>
<g opacity="0.017194">
<path opacity="0.017194" d="M59.4727 95.6394C57.6554 95.6394 55.9628 94.703 55.0007 93.1658L6.18294 15.2479C5.16739 13.6401 5.11394 11.6082 6.05822 9.94736C6.98469 8.28652 8.74855 7.26175 10.6727 7.26175H108.29C110.197 7.26175 111.961 8.28652 112.905 9.94736C113.831 11.6082 113.778 13.6401 112.78 15.2479L63.9625 93.1658C63.0004 94.703 61.3078 95.6394 59.4727 95.6394ZM20.1512 17.7215L59.4727 80.4975L98.7941 17.7215H20.1512Z" fill="#AB80FF"/>
</g>
<g opacity="0.0173">
<path opacity="0.0173" d="M59.4728 95.3744C57.7445 95.3744 56.1232 94.491 55.2146 93.0245L6.41463 15.1242C5.45252 13.5871 5.39907 11.6612 6.28991 10.0887C7.18074 8.51621 8.85552 7.52678 10.6728 7.52678H108.291C110.108 7.52678 111.783 8.49854 112.673 10.0887C113.564 11.6612 113.511 13.5871 112.549 15.1242L63.7309 93.0245C62.8223 94.491 61.201 95.3744 59.4728 95.3744ZM19.6703 17.4565L59.4728 80.9746L99.2753 17.4565H19.6703Z" fill="#AB80FF"/>
</g>
<g opacity="0.021631">
<path opacity="0.021631" d="M59.4725 95.1093C57.8333 95.1093 56.3011 94.2612 55.4459 92.8831L6.62814 14.9829C5.71949 13.5341 5.66604 11.6965 6.50342 10.2124C7.34081 8.72824 8.92649 7.79181 10.6547 7.79181H108.272C110.001 7.79181 111.586 8.71057 112.424 10.2124C113.261 11.7142 113.208 13.5341 112.299 14.9829L63.4812 92.8831C62.6438 94.2612 61.1116 95.1093 59.4725 95.1093ZM19.2067 17.2091L59.4903 81.4869L99.756 17.2091H19.2067Z" fill="#AB80FF"/>
</g>
<g opacity="0.021769">
<path opacity="0.021769" d="M59.4723 94.8443C57.9223 94.8443 56.4791 94.0493 55.6596 92.7418L6.85962 14.8415C6.00442 13.4634 5.95097 11.7495 6.75272 10.3361C7.53666 8.92259 9.05108 8.05684 10.6724 8.05684H108.29C109.911 8.05684 111.426 8.94026 112.21 10.3361C112.994 11.7495 112.958 13.4634 112.103 14.8415L63.2851 92.7418C62.4655 94.0493 61.0224 94.8443 59.4723 94.8443ZM18.7255 16.9441L59.4723 81.9817L100.219 16.9441H18.7255Z" fill="#AB80FF"/>
</g>
<g opacity="0.026134">
<path opacity="0.026134" d="M59.4728 94.5792C58.0119 94.5792 56.6578 93.8372 55.8917 92.6004L7.07393 14.7001C6.27218 13.4104 6.21872 11.7849 6.96703 10.4597C7.71533 9.13459 9.14066 8.30417 10.6729 8.30417H108.291C109.823 8.30417 111.23 9.13459 111.979 10.4597C112.727 11.7849 112.691 13.4104 111.872 14.7001L63.054 92.6004C62.2879 93.8372 60.9338 94.5792 59.4728 94.5792ZM18.245 16.679L59.4728 82.4763L100.701 16.679H18.245Z" fill="#AB80FF"/>
</g>
<g opacity="0.026309">
<path opacity="0.026309" d="M59.4722 94.3319C58.1004 94.3319 56.8354 93.6252 56.1049 92.4767L7.30495 14.5588C6.53883 13.3574 6.5032 11.8202 7.21587 10.5834C7.91072 9.34661 9.22916 8.5692 10.6723 8.5692H108.29C109.733 8.5692 111.052 9.34661 111.746 10.5834C112.441 11.8202 112.406 13.3574 111.657 14.5588L62.8396 92.459C62.1091 93.6252 60.8441 94.3319 59.4722 94.3319ZM17.7812 16.414L59.4722 82.9711L101.163 16.414H17.7812Z" fill="#AB80FF"/>
</g>
<g opacity="0.030714">
<path opacity="0.030714" d="M59.4724 94.0669C58.1896 94.0669 57.0137 93.4131 56.3366 92.3354L7.5367 14.4351C6.82403 13.3043 6.7884 11.8909 7.44762 10.7248C8.08902 9.55864 9.31837 8.83423 10.6724 8.83423H108.29C109.626 8.83423 110.874 9.55864 111.515 10.7248C112.174 11.8909 112.139 13.3043 111.426 14.4351L62.6081 92.3354C61.9311 93.4131 60.7552 94.0669 59.4724 94.0669ZM17.3003 16.149L59.4724 83.4658L101.645 16.149H17.3003Z" fill="#AB80FF"/>
</g>
<g opacity="0.030934">
<path opacity="0.030934" d="M59.4721 93.8018C58.2784 93.8018 57.1916 93.2011 56.568 92.194L7.75025 14.2938C7.09103 13.2513 7.0554 11.9262 7.66116 10.8484C8.26693 9.77066 9.4072 9.09926 10.6544 9.09926H108.272C109.519 9.09926 110.66 9.77066 111.265 10.8484C111.871 11.9262 111.835 13.2513 111.176 14.2938L62.3584 92.194C61.7705 93.2011 60.6658 93.8018 59.4721 93.8018ZM16.8368 15.9016L59.4899 83.9605L102.125 15.9016H16.8368Z" fill="#AB80FF"/>
</g>
<g opacity="0.03539">
<path opacity="0.03539" d="M59.4728 93.5368C58.3859 93.5368 57.3704 92.9714 56.7824 92.0527L7.9825 14.1524C7.37673 13.1807 7.3411 11.9616 7.91123 10.9721C8.46355 9.98268 9.53255 9.36429 10.6728 9.36429H108.291C109.431 9.36429 110.5 9.98268 111.052 10.9721C111.604 11.9616 111.587 13.1807 110.981 14.1524L62.1631 92.0527C61.5929 92.9891 60.5774 93.5368 59.4728 93.5368ZM16.3563 15.6366L59.4728 84.4552L102.589 15.6366H16.3563Z" fill="#AB80FF"/>
</g>
<g opacity="0.035667">
<path opacity="0.035667" d="M59.4725 93.2719C58.4748 93.2719 57.5305 92.7595 57.0138 91.9114L8.19604 14.0112C7.64372 13.1277 7.60809 12.0146 8.12477 11.0959C8.64145 10.1771 9.60356 9.61172 10.6547 9.61172H108.272C109.324 9.61172 110.304 10.1771 110.802 11.0959C111.319 12.0146 111.283 13.1277 110.731 14.0112L61.9134 91.9114C61.4145 92.7595 60.488 93.2719 59.4725 93.2719ZM15.875 15.3716L59.4725 84.9501L103.07 15.3716H15.875Z" fill="#AB80FF"/>
</g>
<g opacity="0.04019">
<path opacity="0.04019" d="M59.4725 93.0245C58.5638 93.0245 57.7086 92.5652 57.2276 91.7878L8.42762 13.8698C7.92876 13.0571 7.89312 12.05 8.35636 11.2196C8.81959 10.3891 9.71043 9.87675 10.6547 9.87675H108.272C109.235 9.87675 110.108 10.3891 110.571 11.2196C111.034 12.05 111.016 13.0571 110.5 13.8698L61.6817 91.7701C61.2363 92.5475 60.3811 93.0245 59.4725 93.0245ZM15.4118 15.1066L59.4903 85.4448L103.551 15.1066H15.4118Z" fill="#AB80FF"/>
</g>
<g opacity="0.040549">
<path opacity="0.040549" d="M59.4724 92.7594C58.6528 92.7594 57.8867 92.3354 57.4591 91.6463L8.64136 13.7461C8.17813 13.0217 8.16031 12.1029 8.58791 11.3608C9.01551 10.6187 9.79944 10.1594 10.6546 10.1594H108.272C109.128 10.1594 109.929 10.6187 110.339 11.3608C110.767 12.1029 110.731 13.0217 110.286 13.7461L61.4679 91.6463C61.0581 92.3354 60.292 92.7594 59.4724 92.7594ZM14.9307 14.8415L59.4724 85.9394L104.014 14.8415H14.9307Z" fill="#AB80FF"/>
</g>
<g opacity="0.045177">
<path opacity="0.045177" d="M59.4725 92.4944C58.7421 92.4944 58.065 92.1234 57.6731 91.505L8.87313 13.6048C8.46334 12.9511 8.44553 12.156 8.81968 11.4846C9.19383 10.8132 9.88868 10.4068 10.6548 10.4068H108.272C109.039 10.4068 109.751 10.8132 110.108 11.4846C110.482 12.156 110.464 12.9687 110.054 13.6048L61.2364 91.505C60.8801 92.1234 60.203 92.4944 59.4725 92.4944ZM14.4498 14.5942L59.4725 86.4518L104.495 14.5942H14.4498Z" fill="#AB80FF"/>
</g>
<g opacity="0.045679">
<path opacity="0.045679" d="M59.4726 92.2294C58.8312 92.2294 58.2432 91.9114 57.9047 91.3636L9.10478 13.4634C8.74845 12.8981 8.73063 12.1913 9.05133 11.6083C9.37203 11.0252 9.99562 10.6718 10.6726 10.6718H108.29C108.967 10.6718 109.573 11.0252 109.912 11.6083C110.232 12.1913 110.215 12.8981 109.858 13.4634L61.0405 91.3636C60.7019 91.9114 60.114 92.2294 59.4726 92.2294ZM13.9866 14.3292L59.4726 86.9465L104.959 14.3292H13.9866Z" fill="#AB80FF"/>
</g>
<g opacity="0.05052">
<path opacity="0.05052" d="M59.4721 91.9644C58.9198 91.9644 58.4209 91.6817 58.1359 91.2223L9.31811 13.3221C9.01523 12.845 8.99741 12.2266 9.28248 11.7319C9.56755 11.2372 10.0842 10.9192 10.6722 10.9192H108.29C108.86 10.9192 109.395 11.2195 109.68 11.7319C109.965 12.2266 109.947 12.845 109.644 13.3221L60.8262 91.2223C60.5411 91.6994 60.0244 91.9644 59.4721 91.9644ZM13.505 14.0642L59.4721 87.4236L105.439 14.0642H13.505Z" fill="#AB80FF"/>
</g>
<g opacity="0.051421">
<path opacity="0.051421" d="M59.4721 91.717C59.0089 91.717 58.5991 91.4873 58.3497 91.0986L9.54976 13.1807C9.30032 12.7744 9.28251 12.262 9.51412 11.8556C9.74574 11.4492 10.1912 11.1842 10.6722 11.1842H108.29C108.771 11.1842 109.216 11.4492 109.448 11.8556C109.68 12.262 109.662 12.7744 109.412 13.1807L60.5946 91.081C60.363 91.4697 59.9354 91.717 59.4721 91.717ZM13.0418 13.7991L59.49 87.9183L105.92 13.7991H13.0418Z" fill="#AB80FF"/>
</g>
<g opacity="0.058579">
<path opacity="0.058579" d="M59.4725 91.452C59.1162 91.452 58.7777 91.2576 58.5817 90.9573L9.76392 13.0394C9.56793 12.7213 9.55012 12.315 9.7461 11.9793C9.92427 11.6436 10.2806 11.4492 10.6726 11.4492H108.29C108.664 11.4492 109.021 11.6612 109.217 11.9793C109.395 12.315 109.395 12.7213 109.199 13.0394L60.3812 90.9396C60.1852 91.2576 59.8467 91.452 59.4725 91.452ZM12.5611 13.5341L59.4725 88.413L106.402 13.5341H12.5611Z" fill="#AB80FF"/>
</g>
<path d="M59.4725 91.187C59.2052 91.187 58.938 91.0456 58.7954 90.8159L9.99549 12.9157C9.85296 12.6683 9.83514 12.368 9.97768 12.1206C10.1202 11.8733 10.3875 11.7142 10.6725 11.7142H108.29C108.575 11.7142 108.843 11.8733 108.985 12.1206C109.128 12.368 109.11 12.6683 108.967 12.9157L60.1495 90.8159C60.007 91.0456 59.7575 91.187 59.4725 91.187ZM12.08 13.2867L59.4725 88.9254L106.865 13.2867H12.08Z" fill="#AB80FF"/>
<path d="M59.4726 90.8689C59.3122 90.8689 59.1519 90.7805 59.0628 90.6392L10.2628 12.739C10.1738 12.5976 10.1738 12.4033 10.245 12.2619C10.3341 12.1206 10.4945 12.0146 10.6548 12.0146H108.273C108.451 12.0146 108.611 12.1029 108.682 12.2619C108.771 12.4033 108.754 12.5976 108.664 12.739L59.8467 90.6392C59.7933 90.7982 59.6329 90.8689 59.4726 90.8689ZM11.51 12.9687L59.4726 89.5084L107.435 12.9687H11.51Z" fill="#AB80FF"/>
<path d="M59.4728 90.5686C59.4193 90.5686 59.3659 90.5332 59.3302 90.4979L10.5303 12.58C10.4947 12.527 10.4947 12.474 10.5303 12.421C10.5659 12.368 10.6194 12.3326 10.6728 12.3326H108.291C108.344 12.3326 108.397 12.368 108.433 12.421C108.469 12.474 108.451 12.527 108.433 12.58L59.6153 90.4802C59.5797 90.5332 59.5262 90.5686 59.4728 90.5686ZM10.9579 12.6507L59.4728 90.1092L108.005 12.6507H10.9579Z" fill="#AB80FF"/>
<defs>
<linearGradient id="paint0_linear_158_1481" x1="59.4771" y1="8.89178" x2="59.4771" y2="95.8378" gradientUnits="userSpaceOnUse">
<stop stop-color="#B068A5"/>
<stop offset="0.2471" stop-color="#9859B3"/>
<stop offset="0.7661" stop-color="#5B33D6"/>
<stop offset="1" stop-color="#3D20E7"/>
</linearGradient>
<linearGradient id="paint1_linear_158_1481" x1="0" y1="46.9279" x2="100.032" y2="46.9279" gradientUnits="userSpaceOnUse">
<stop stop-color="#B068A5"/>
<stop offset="0.2471" stop-color="#9859B3"/>
<stop offset="0.7661" stop-color="#5B33D6"/>
<stop offset="1" stop-color="#3D20E7"/>
</linearGradient>
</defs>
</svg>
