<svg width="99" height="99" viewBox="0 0 99 99" fill="none" xmlns="http://www.w3.org/2000/svg">
<path d="M79.865 74.25C82.9424 76.1312 84.5625 78.2652 84.5625 80.4375C84.5625 82.6098 82.9424 84.7438 79.865 86.625C76.7876 88.5062 72.3614 90.0684 67.0313 91.1546C61.7011 92.2407 55.6548 92.8125 49.5 92.8125C43.3453 92.8125 37.2989 92.2407 31.9688 91.1546C26.6386 90.0684 22.2124 88.5062 19.135 86.625C16.0576 84.7438 14.4375 82.6098 14.4375 80.4375C14.4375 78.2652 16.0576 76.1312 19.135 74.25" stroke="#7E869E" stroke-opacity="0.25" stroke-linecap="round"/>
<path d="M78.375 41.25C78.375 63.7777 53.3471 76.5374 49.8934 78.1909C49.6365 78.3139 49.3635 78.3139 49.1066 78.1909C45.6529 76.5374 20.625 63.7777 20.625 41.25C20.625 25.3028 33.5528 12.375 49.5 12.375C65.4472 12.375 78.375 25.3028 78.375 41.25Z" fill="url(#paint0_linear_175_1558)"/>
<ellipse cx="49.5" cy="41.25" rx="12.375" ry="12.375" fill="white"/>
<defs>
<linearGradient id="paint0_linear_175_1558" x1="58" y1="66" x2="21" y2="24" gradientUnits="userSpaceOnUse">
<stop offset="0.0235821" stop-color="#9309FF"/>
<stop offset="1" stop-color="#0D9EFB"/>
</linearGradient>
</defs>
</svg>
